<mxfile host="app.diagrams.net" agent="Mozilla/5.0 (Windows NT 10.0; Win64; x64) AppleWebKit/537.36 (KHTML, like Gecko) Chrome/138.0.0.0 Safari/537.36" version="28.0.6">
  <diagram name="Page-1" id="KWg9GGsJ2Aq95nXZRUPh">
    <mxGraphModel dx="1426" dy="751" grid="1" gridSize="10" guides="1" tooltips="1" connect="1" arrows="1" fold="1" page="1" pageScale="1" pageWidth="827" pageHeight="1169" math="0" shadow="0">
      <root>
        <mxCell id="0" />
        <mxCell id="1" parent="0" />
        <mxCell id="BD7Wg0NSzrtczN6H--qx-6" style="edgeStyle=orthogonalEdgeStyle;rounded=0;orthogonalLoop=1;jettySize=auto;html=1;exitX=0.5;exitY=1;exitDx=0;exitDy=0;entryX=0.5;entryY=0;entryDx=0;entryDy=0;" edge="1" parent="1" source="BD7Wg0NSzrtczN6H--qx-1" target="BD7Wg0NSzrtczN6H--qx-3">
          <mxGeometry relative="1" as="geometry" />
        </mxCell>
        <mxCell id="BD7Wg0NSzrtczN6H--qx-7" style="edgeStyle=orthogonalEdgeStyle;rounded=0;orthogonalLoop=1;jettySize=auto;html=1;exitX=0.5;exitY=1;exitDx=0;exitDy=0;entryX=0.5;entryY=0;entryDx=0;entryDy=0;" edge="1" parent="1" source="BD7Wg0NSzrtczN6H--qx-1" target="BD7Wg0NSzrtczN6H--qx-2">
          <mxGeometry relative="1" as="geometry" />
        </mxCell>
        <mxCell id="BD7Wg0NSzrtczN6H--qx-1" value="Project Aim:&amp;nbsp;" style="rounded=1;whiteSpace=wrap;html=1;strokeWidth=2;shadow=0;glass=0;fillColor=#f5f5f5;fontColor=#333333;strokeColor=#666666;fontSize=12;fontStyle=1" vertex="1" parent="1">
          <mxGeometry x="139" y="10" width="120" height="60" as="geometry" />
        </mxCell>
        <mxCell id="BD7Wg0NSzrtczN6H--qx-12" style="edgeStyle=orthogonalEdgeStyle;rounded=0;orthogonalLoop=1;jettySize=auto;html=1;exitX=0.75;exitY=1;exitDx=0;exitDy=0;entryX=1;entryY=0.5;entryDx=0;entryDy=0;" edge="1" parent="1" source="BD7Wg0NSzrtczN6H--qx-2" target="BD7Wg0NSzrtczN6H--qx-5">
          <mxGeometry relative="1" as="geometry" />
        </mxCell>
        <mxCell id="BD7Wg0NSzrtczN6H--qx-37" style="edgeStyle=orthogonalEdgeStyle;rounded=0;orthogonalLoop=1;jettySize=auto;html=1;exitX=0.5;exitY=1;exitDx=0;exitDy=0;entryX=1;entryY=0.5;entryDx=0;entryDy=0;" edge="1" parent="1" source="BD7Wg0NSzrtczN6H--qx-2" target="BD7Wg0NSzrtczN6H--qx-4">
          <mxGeometry relative="1" as="geometry" />
        </mxCell>
        <mxCell id="BD7Wg0NSzrtczN6H--qx-2" value="Research Objectives" style="rounded=1;whiteSpace=wrap;html=1;strokeWidth=2;shadow=0;glass=0;fillColor=#f5f5f5;fontColor=#333333;strokeColor=#666666;fontSize=12;fontStyle=1" vertex="1" parent="1">
          <mxGeometry x="219" y="100" width="120" height="60" as="geometry" />
        </mxCell>
        <mxCell id="BD7Wg0NSzrtczN6H--qx-36" style="edgeStyle=orthogonalEdgeStyle;rounded=0;orthogonalLoop=1;jettySize=auto;html=1;exitX=0.5;exitY=1;exitDx=0;exitDy=0;entryX=0;entryY=0.5;entryDx=0;entryDy=0;" edge="1" parent="1" source="BD7Wg0NSzrtczN6H--qx-3" target="BD7Wg0NSzrtczN6H--qx-4">
          <mxGeometry relative="1" as="geometry" />
        </mxCell>
        <mxCell id="BD7Wg0NSzrtczN6H--qx-3" value="Research Questions" style="rounded=1;whiteSpace=wrap;html=1;strokeWidth=2;shadow=0;glass=0;fillColor=#f5f5f5;fontColor=#333333;strokeColor=#666666;fontSize=12;fontStyle=1" vertex="1" parent="1">
          <mxGeometry x="59" y="100" width="120" height="60" as="geometry" />
        </mxCell>
        <mxCell id="BD7Wg0NSzrtczN6H--qx-15" style="edgeStyle=orthogonalEdgeStyle;rounded=0;orthogonalLoop=1;jettySize=auto;html=1;exitX=0.5;exitY=1;exitDx=0;exitDy=0;" edge="1" parent="1" source="BD7Wg0NSzrtczN6H--qx-4" target="BD7Wg0NSzrtczN6H--qx-5">
          <mxGeometry relative="1" as="geometry" />
        </mxCell>
        <mxCell id="BD7Wg0NSzrtczN6H--qx-4" value="Literature Review" style="rounded=1;whiteSpace=wrap;html=1;strokeWidth=2;shadow=0;glass=0;fillColor=#f5f5f5;fontColor=#333333;strokeColor=#666666;fontSize=12;fontStyle=1" vertex="1" parent="1">
          <mxGeometry x="139" y="170" width="120" height="60" as="geometry" />
        </mxCell>
        <mxCell id="BD7Wg0NSzrtczN6H--qx-17" style="edgeStyle=orthogonalEdgeStyle;rounded=0;orthogonalLoop=1;jettySize=auto;html=1;exitX=0.5;exitY=1;exitDx=0;exitDy=0;" edge="1" parent="1" source="BD7Wg0NSzrtczN6H--qx-5" target="BD7Wg0NSzrtczN6H--qx-16">
          <mxGeometry relative="1" as="geometry" />
        </mxCell>
        <mxCell id="BD7Wg0NSzrtczN6H--qx-5" value="Data Collection" style="rounded=1;whiteSpace=wrap;html=1;strokeWidth=2;shadow=0;glass=0;fillColor=#f5f5f5;fontColor=#333333;strokeColor=#666666;fontSize=12;fontStyle=1" vertex="1" parent="1">
          <mxGeometry x="139" y="240" width="120" height="60" as="geometry" />
        </mxCell>
        <mxCell id="BD7Wg0NSzrtczN6H--qx-38" style="edgeStyle=orthogonalEdgeStyle;rounded=0;orthogonalLoop=1;jettySize=auto;html=1;exitX=0;exitY=0.5;exitDx=0;exitDy=0;entryX=0;entryY=0.5;entryDx=0;entryDy=0;" edge="1" parent="1" source="BD7Wg0NSzrtczN6H--qx-16" target="BD7Wg0NSzrtczN6H--qx-20">
          <mxGeometry relative="1" as="geometry" />
        </mxCell>
        <mxCell id="BD7Wg0NSzrtczN6H--qx-39" style="edgeStyle=orthogonalEdgeStyle;rounded=0;orthogonalLoop=1;jettySize=auto;html=1;exitX=1;exitY=0.5;exitDx=0;exitDy=0;entryX=1;entryY=0.5;entryDx=0;entryDy=0;" edge="1" parent="1" source="BD7Wg0NSzrtczN6H--qx-16" target="BD7Wg0NSzrtczN6H--qx-18">
          <mxGeometry relative="1" as="geometry" />
        </mxCell>
        <mxCell id="BD7Wg0NSzrtczN6H--qx-16" value="Exploratory Analysis and Cleaning" style="rounded=1;whiteSpace=wrap;html=1;strokeWidth=2;shadow=0;glass=0;fillColor=#f5f5f5;fontColor=#333333;strokeColor=#666666;fontSize=12;fontStyle=1" vertex="1" parent="1">
          <mxGeometry x="139" y="310" width="120" height="60" as="geometry" />
        </mxCell>
        <mxCell id="BD7Wg0NSzrtczN6H--qx-43" style="edgeStyle=orthogonalEdgeStyle;rounded=0;orthogonalLoop=1;jettySize=auto;html=1;exitX=0.5;exitY=1;exitDx=0;exitDy=0;entryX=1;entryY=0.5;entryDx=0;entryDy=0;" edge="1" parent="1" source="BD7Wg0NSzrtczN6H--qx-18" target="BD7Wg0NSzrtczN6H--qx-22">
          <mxGeometry relative="1" as="geometry" />
        </mxCell>
        <mxCell id="BD7Wg0NSzrtczN6H--qx-18" value="Injecting Artificially Missing Data" style="rounded=1;whiteSpace=wrap;html=1;strokeWidth=2;shadow=0;glass=0;fillColor=#f5f5f5;fontColor=#333333;strokeColor=#666666;fontSize=12;fontStyle=1" vertex="1" parent="1">
          <mxGeometry x="219" y="380" width="120" height="60" as="geometry" />
        </mxCell>
        <mxCell id="BD7Wg0NSzrtczN6H--qx-42" style="edgeStyle=orthogonalEdgeStyle;rounded=0;orthogonalLoop=1;jettySize=auto;html=1;exitX=0.5;exitY=1;exitDx=0;exitDy=0;entryX=0;entryY=0.5;entryDx=0;entryDy=0;" edge="1" parent="1" source="BD7Wg0NSzrtczN6H--qx-20" target="BD7Wg0NSzrtczN6H--qx-22">
          <mxGeometry relative="1" as="geometry" />
        </mxCell>
        <mxCell id="BD7Wg0NSzrtczN6H--qx-20" value="Limiting Real Missing Data" style="rounded=1;whiteSpace=wrap;html=1;strokeWidth=2;shadow=0;glass=0;fillColor=#f5f5f5;fontColor=#333333;strokeColor=#666666;fontSize=12;fontStyle=1" vertex="1" parent="1">
          <mxGeometry x="59" y="380" width="120" height="60" as="geometry" />
        </mxCell>
        <mxCell id="BD7Wg0NSzrtczN6H--qx-27" style="edgeStyle=orthogonalEdgeStyle;rounded=0;orthogonalLoop=1;jettySize=auto;html=1;exitX=0.5;exitY=1;exitDx=0;exitDy=0;entryX=1;entryY=0.5;entryDx=0;entryDy=0;" edge="1" parent="1" source="BD7Wg0NSzrtczN6H--qx-22" target="BD7Wg0NSzrtczN6H--qx-23">
          <mxGeometry relative="1" as="geometry" />
        </mxCell>
        <mxCell id="BD7Wg0NSzrtczN6H--qx-28" style="edgeStyle=orthogonalEdgeStyle;rounded=0;orthogonalLoop=1;jettySize=auto;html=1;exitX=0.5;exitY=1;exitDx=0;exitDy=0;entryX=0;entryY=0.5;entryDx=0;entryDy=0;" edge="1" parent="1" source="BD7Wg0NSzrtczN6H--qx-22" target="BD7Wg0NSzrtczN6H--qx-24">
          <mxGeometry relative="1" as="geometry" />
        </mxCell>
        <mxCell id="BD7Wg0NSzrtczN6H--qx-46" value="(Artificially Missing Only)" style="edgeLabel;html=1;align=center;verticalAlign=middle;resizable=0;points=[];" vertex="1" connectable="0" parent="BD7Wg0NSzrtczN6H--qx-28">
          <mxGeometry x="0.5778" y="1" relative="1" as="geometry">
            <mxPoint x="79" y="-39" as="offset" />
          </mxGeometry>
        </mxCell>
        <mxCell id="BD7Wg0NSzrtczN6H--qx-22" value="Imputing Missing Data" style="rounded=1;whiteSpace=wrap;html=1;strokeWidth=2;shadow=0;glass=0;fillColor=#f5f5f5;fontColor=#333333;strokeColor=#666666;fontSize=12;fontStyle=1" vertex="1" parent="1">
          <mxGeometry x="139" y="450" width="120" height="60" as="geometry" />
        </mxCell>
        <mxCell id="BD7Wg0NSzrtczN6H--qx-45" style="edgeStyle=orthogonalEdgeStyle;rounded=0;orthogonalLoop=1;jettySize=auto;html=1;exitX=0;exitY=0.5;exitDx=0;exitDy=0;entryX=0;entryY=0.5;entryDx=0;entryDy=0;" edge="1" parent="1" source="BD7Wg0NSzrtczN6H--qx-23" target="BD7Wg0NSzrtczN6H--qx-29">
          <mxGeometry relative="1" as="geometry" />
        </mxCell>
        <mxCell id="BD7Wg0NSzrtczN6H--qx-23" value="Evaluating through Predictive Model Performance" style="rounded=1;whiteSpace=wrap;html=1;strokeWidth=2;shadow=0;glass=0;fillColor=#f5f5f5;fontColor=#333333;strokeColor=#666666;fontSize=12;fontStyle=1" vertex="1" parent="1">
          <mxGeometry x="59" y="525" width="120" height="60" as="geometry" />
        </mxCell>
        <mxCell id="BD7Wg0NSzrtczN6H--qx-44" style="edgeStyle=orthogonalEdgeStyle;rounded=0;orthogonalLoop=1;jettySize=auto;html=1;exitX=1;exitY=0.5;exitDx=0;exitDy=0;entryX=1;entryY=0.5;entryDx=0;entryDy=0;" edge="1" parent="1" source="BD7Wg0NSzrtczN6H--qx-24" target="BD7Wg0NSzrtczN6H--qx-29">
          <mxGeometry relative="1" as="geometry" />
        </mxCell>
        <mxCell id="BD7Wg0NSzrtczN6H--qx-24" value="Evaluating through Ground Truth Comparison" style="rounded=1;whiteSpace=wrap;html=1;strokeWidth=2;shadow=0;glass=0;fillColor=#f5f5f5;fontColor=#333333;strokeColor=#666666;fontSize=12;fontStyle=1" vertex="1" parent="1">
          <mxGeometry x="219" y="525" width="120" height="60" as="geometry" />
        </mxCell>
        <mxCell id="BD7Wg0NSzrtczN6H--qx-33" style="edgeStyle=orthogonalEdgeStyle;rounded=0;orthogonalLoop=1;jettySize=auto;html=1;exitX=0.5;exitY=1;exitDx=0;exitDy=0;entryX=0.5;entryY=0;entryDx=0;entryDy=0;" edge="1" parent="1" source="BD7Wg0NSzrtczN6H--qx-29" target="BD7Wg0NSzrtczN6H--qx-32">
          <mxGeometry relative="1" as="geometry" />
        </mxCell>
        <mxCell id="BD7Wg0NSzrtczN6H--qx-29" value="Results and Findings" style="rounded=1;whiteSpace=wrap;html=1;strokeWidth=2;shadow=0;glass=0;fillColor=#f5f5f5;fontColor=#333333;strokeColor=#666666;fontSize=12;fontStyle=1" vertex="1" parent="1">
          <mxGeometry x="139" y="590" width="120" height="60" as="geometry" />
        </mxCell>
        <mxCell id="BD7Wg0NSzrtczN6H--qx-32" value="Conclusions, Reflection and Future Work" style="rounded=1;whiteSpace=wrap;html=1;strokeWidth=2;shadow=0;glass=0;fillColor=#f5f5f5;fontColor=#333333;strokeColor=#666666;fontSize=12;fontStyle=1" vertex="1" parent="1">
          <mxGeometry x="139" y="660" width="120" height="60" as="geometry" />
        </mxCell>
      </root>
    </mxGraphModel>
  </diagram>
</mxfile>
